<svg width="30" height="30" viewBox="0 0 30 30" fill="none" xmlns="http://www.w3.org/2000/svg">
<g clip-path="url(#clip0)">
<path d="M13.6838 28.0389C13.6838 26.956 12.8059 26.0781 11.7227 26.0781C10.6398 26.0781 9.76196 26.956 9.76196 28.0389C9.76196 29.1221 10.6398 29.9999 11.7227 29.9999C12.8054 29.9989 13.6827 29.1216 13.6838 28.0389Z" fill="#3E4095"/>
<path d="M25.9172 28.0389C25.9172 29.1221 25.0394 29.9999 23.9562 29.9999C22.8732 29.9999 21.9951 29.1221 21.9951 28.0389C21.9951 26.956 22.8732 26.0781 23.9562 26.0781C25.0394 26.0781 25.9172 26.956 25.9172 28.0389Z" fill="#3E4095"/>
<path d="M23.2736 14.942V6.8909H11.801V14.8352L15.1078 14.866V10.8254C15.1078 10.5644 15.3145 10.4001 15.5752 10.4001H19.6731C19.9341 10.4001 20.1692 10.5644 20.1692 10.8254V14.9127L23.2736 14.942Z" fill="#3E4095"/>
<path d="M19.2246 14.904V11.3449H16.0527V14.8747L19.2246 14.904Z" fill="#3E4095"/>
<path d="M17.6015 -7.62939e-06L10.7351 5.9461H24.4499L17.6015 -7.62939e-06Z" fill="#3E4095"/>
<path d="M24.2182 15.4186C24.2156 15.5517 24.1631 15.6793 24.0708 15.7755C23.9817 15.8694 23.8605 15.926 23.7313 15.9339H23.7268L11.3129 15.7971C11.0538 15.7948 10.8561 15.5625 10.8561 15.3034V10.8051H7.8933L7.25272 7.03193C6.99675 5.50586 5.6734 4.38945 4.12598 4.39393H2.19579C1.93481 4.39393 1.72339 4.60535 1.72339 4.86633C1.72339 5.12731 1.93481 5.33873 2.19579 5.33873H4.12598C5.20944 5.32792 6.14 6.10585 6.32163 7.17402L8.76508 21.5816C9.01973 23.1111 10.3418 24.2328 11.8923 24.2347H26.2784C26.5393 24.2347 26.7508 24.0232 26.7508 23.7623C26.7508 23.5013 26.5393 23.2899 26.2784 23.2899H11.8923C10.8034 23.2875 9.87516 22.499 9.69669 21.4248L9.24565 18.7683H23.6891C24.9521 18.7683 26.0696 17.9509 26.4518 16.7472L28.3572 10.8051H24.2182V15.4186Z" fill="#3E4095"/>
</g>
<defs>
<clipPath id="clip0">
<rect width="30" height="30" fill="white"/>
</clipPath>
</defs>
</svg>
