<svg width="2348" height="514" viewBox="0 0 2348 514" fill="none" xmlns="http://www.w3.org/2000/svg">
<path fill-rule="evenodd" clip-rule="evenodd" d="M278.189 439.882C292.772 449.592 367.65 473.079 388.719 476.935L392.119 476.76C392.294 476.375 392.505 475.463 392.575 475.674C393.662 478.478 393.346 473.991 393.486 473.675C393.626 473.325 394.573 470.836 394.573 470.836C395.73 467.295 395.484 467.26 396.221 463.299L423.283 337.17C433.94 295.559 441.793 239.821 452.59 196.002L478.671 68.3654C480.388 57.2178 486.804 34.6772 487.364 25.7731C483.368 23.4244 347.774 -0.483324 344.829 0.00745136C337.573 1.3045 342.13 4.95026 339.817 16.7289C338.905 21.286 336.872 28.6126 336.241 33.3801C331.719 67.7694 327.372 113.412 321.307 146.118C319.099 157.967 318.293 171.603 316.4 183.031L278.189 439.882V439.882Z" fill="#FEC800"/>
<path fill-rule="evenodd" clip-rule="evenodd" d="M377.15 474.972C382.023 479.389 382.058 476.48 389.28 478.303C393.872 479.459 388.123 478.969 395.204 480.09C397.307 480.406 400.813 480.441 403.056 480.546C422.197 481.493 460.126 492.605 491.08 489.59L524.979 409.209C532.305 391.541 619.032 175.389 621.661 164.347L490.905 117.478C487.96 120.563 438.848 278.522 433.695 295.945L380.621 470.906C378.202 476.795 381.217 473.535 377.15 474.972V474.972Z" fill="#DC291A"/>
<path fill-rule="evenodd" clip-rule="evenodd" d="M187.396 429.611C192.619 430.733 190.796 430.838 195.038 429.576C198.649 428.489 192.935 428.068 202.189 427.753C206.326 427.578 215.335 427.332 219.156 427.858C222.381 428.244 228.411 430.733 231.951 431.924L249.128 439.496C249.409 439.637 249.724 439.847 250.04 439.952C257.261 442.897 251.687 437.463 263.431 444.965L280.433 452.817C289.617 456.814 287.97 457.83 295.892 457.971C297.47 424.563 305.392 124.419 301.922 115.725C293.859 112.009 187.676 116.216 169.202 116.286C168.781 131.745 176.178 249.742 177.791 273.439C179.543 299.52 180.981 325.672 182.208 351.402L187.396 429.611V429.611Z" fill="#00A859"/>
<path fill-rule="evenodd" clip-rule="evenodd" d="M128.187 269.793C37.4991 291.633 -37.9751 314.805 86.4013 380.428C214.003 447.805 315.663 460.495 454.973 482.439C488.451 485.594 724.759 501.79 683.219 411.452L672.772 392.382C689.494 406.334 707.617 420.777 700.326 446.508C674.174 538.423 417.008 511.465 344.829 501.65C258.102 489.871 39.988 424.843 4.37179 338.923C-24.3385 269.758 96.5674 269.443 128.187 269.793Z" fill="#00AFEF"/>
<path fill-rule="evenodd" clip-rule="evenodd" d="M148.695 380.954C262.414 429.751 540.719 529.343 661.344 459.057C708.879 431.399 670.669 397.114 643.746 369.982C684.34 396.483 721.85 435.114 668.32 470.38C544.61 551.919 256.946 457.69 136.005 409.209C128.187 405.703 124.717 396.519 128.222 388.736C131.728 380.919 140.877 377.448 148.695 380.954V380.954Z" fill="#3E4095"/>
<path fill-rule="evenodd" clip-rule="evenodd" d="M278.189 439.882C292.772 449.592 367.65 473.079 388.719 476.935L392.119 476.76C392.294 476.375 392.505 475.463 392.575 475.674C393.662 478.478 393.346 473.991 393.486 473.675C393.626 473.325 394.573 470.836 394.573 470.836C395.73 467.295 395.484 467.26 396.221 463.299L423.283 337.17C433.94 295.559 441.793 239.821 452.59 196.002L478.671 68.3654C480.388 57.2178 486.804 34.6772 487.364 25.7731C483.368 23.4244 347.774 -0.483324 344.829 0.00745136C337.573 1.3045 342.13 4.95026 339.817 16.7289C338.905 21.286 336.872 28.6126 336.241 33.3801C331.719 67.7694 327.372 113.412 321.307 146.118C319.099 157.967 318.293 171.603 316.4 183.031L278.189 439.882V439.882Z" fill="#FEC800"/>
<path fill-rule="evenodd" clip-rule="evenodd" d="M377.15 474.972C382.023 479.389 382.058 476.48 389.28 478.303C393.872 479.459 388.123 478.969 395.204 480.09C397.307 480.406 400.813 480.441 403.056 480.546C422.197 481.493 460.126 492.605 491.08 489.59L524.979 409.209C532.305 391.541 619.032 175.389 621.661 164.347L490.905 117.478C487.96 120.563 438.848 278.522 433.695 295.945L380.621 470.906C378.202 476.795 381.217 473.535 377.15 474.972V474.972Z" fill="#DC291A"/>
<path fill-rule="evenodd" clip-rule="evenodd" d="M187.396 429.611C192.619 430.733 190.796 430.838 195.038 429.576C198.649 428.489 192.935 428.068 202.189 427.753C206.326 427.578 215.335 427.332 219.156 427.858C222.381 428.244 228.411 430.733 231.951 431.924L249.128 439.496C249.409 439.637 249.724 439.847 250.04 439.952C257.261 442.897 251.687 437.463 263.431 444.965L280.433 452.817C289.617 456.814 287.97 457.83 295.892 457.971C297.47 424.563 305.392 124.419 301.922 115.725C293.859 112.009 187.676 116.216 169.202 116.286C168.781 131.745 176.178 249.742 177.791 273.439C179.543 299.52 180.981 325.672 182.208 351.402L187.396 429.611V429.611Z" fill="#00A859"/>
<path fill-rule="evenodd" clip-rule="evenodd" d="M128.187 269.793C37.4991 291.633 -37.9751 314.805 86.4013 380.428C214.003 447.805 315.663 460.495 454.973 482.439C488.451 485.594 724.759 501.79 683.219 411.452L672.772 392.382C689.494 406.334 707.617 420.777 700.326 446.508C674.174 538.423 417.008 511.465 344.829 501.65C258.102 489.871 39.988 424.843 4.37179 338.923C-24.3385 269.758 96.5674 269.443 128.187 269.793Z" fill="#00AFEF"/>
<path fill-rule="evenodd" clip-rule="evenodd" d="M148.695 380.954C262.414 429.751 540.719 529.343 661.344 459.057C708.879 431.399 670.669 397.114 643.746 369.982C684.34 396.483 721.85 435.114 668.32 470.38C544.61 551.919 256.946 457.69 136.005 409.209C128.187 405.703 124.717 396.519 128.222 388.736C131.728 380.919 140.877 377.448 148.695 380.954V380.954Z" fill="#3E4095"/>
<path d="M815.276 395.556L843.705 456.445H837.154L827.622 436.415H801.251L791.761 456.445H785L813.765 395.556H815.276ZM814.521 408.322L804.022 430.494H824.935L814.521 408.322Z" fill="white"/>
<path d="M943.149 405.762L938.404 410.213C935.003 406.896 931.266 404.334 927.234 402.612C923.161 400.891 919.214 400.051 915.351 400.051C910.563 400.051 905.986 401.227 901.661 403.536C897.294 405.888 893.935 409.079 891.583 413.11C889.189 417.142 887.972 421.383 887.972 425.876C887.972 430.453 889.231 434.778 891.667 438.936C894.145 443.051 897.546 446.284 901.871 448.678C906.238 451.029 910.983 452.205 916.19 452.205C922.447 452.205 927.78 450.441 932.105 446.914C936.431 443.387 939.034 438.81 939.832 433.225H920.39V427.262H946.719C946.635 436.668 943.863 444.143 938.32 449.686C932.735 455.229 925.345 458 916.022 458C904.727 458 895.824 454.137 889.231 446.452C884.15 440.573 881.631 433.729 881.631 425.96C881.631 420.207 883.101 414.832 885.998 409.877C888.896 404.88 892.885 401.017 897.966 398.203C903.005 395.432 908.758 394.004 915.141 394.004C920.306 394.004 925.177 394.928 929.754 396.817C934.331 398.665 938.782 401.647 943.149 405.762V405.762Z" fill="white"/>
<path d="M989.492 395.556H1024.35V401.477H995.581V420.583H1024.09V426.504H995.581V450.524H1024.09V456.445H989.492V395.556Z" fill="white"/>
<path d="M1066.13 456.445V395.556H1067.43L1107.95 442.125V395.556H1114.09V456.445H1112.7L1072.43 410.253V456.445H1066.13Z" fill="white"/>
<path d="M1216.72 406.77L1211.93 410.465C1209.28 407.022 1206.09 404.418 1202.35 402.612C1198.66 400.849 1194.59 399.967 1190.13 399.967C1185.31 399.967 1180.81 401.143 1176.66 403.452C1172.5 405.804 1169.31 408.911 1167.04 412.858C1164.77 416.806 1163.6 421.215 1163.6 426.128C1163.6 433.561 1166.16 439.775 1171.24 444.731C1176.36 449.728 1182.74 452.205 1190.51 452.205C1199.04 452.205 1206.18 448.888 1211.93 442.211L1216.72 445.864C1213.69 449.728 1209.91 452.709 1205.38 454.809C1200.8 456.908 1195.76 458 1190.13 458C1179.47 458 1171.07 454.431 1164.9 447.334C1159.77 441.371 1157.17 434.106 1157.17 425.624C1157.17 416.722 1160.28 409.247 1166.54 403.158C1172.79 397.069 1180.64 394.004 1190.05 394.004C1195.76 394.004 1200.88 395.138 1205.46 397.363C1210.04 399.631 1213.82 402.738 1216.72 406.77V406.77Z" fill="white"/>
<path d="M1259.26 395.556H1265.39V456.445H1259.26V395.556Z" fill="white"/>
<path d="M1335.39 395.556L1363.82 456.445H1357.27L1347.74 436.415H1321.37L1311.88 456.445H1305.12L1333.88 395.556H1335.39V395.556ZM1334.64 408.322L1324.14 430.494H1345.05L1334.64 408.322Z" fill="white"/>
<path d="M1457.3 395.556H1463.43V456.445H1457.3V395.556Z" fill="white"/>
<path d="M1508.56 456.445V395.556H1509.91L1550.39 442.125V395.556H1556.52V456.445H1555.13L1514.86 410.253V456.445H1508.56Z" fill="white"/>
<path d="M1599.77 456.445L1608.21 395.556H1609.47L1634.29 445.527L1658.9 395.556H1659.82L1668.6 456.445H1662.67L1656.59 412.857L1635 456.445H1633.41L1611.61 412.521L1605.78 456.445H1599.77Z" fill="white"/>
<path d="M1740.61 394.004C1749.81 394.004 1757.54 397.111 1763.75 403.242C1769.96 409.415 1773.07 416.974 1773.07 425.96C1773.07 434.904 1769.96 442.463 1763.75 448.678C1757.58 454.893 1750.02 458 1741.07 458C1732.05 458 1724.45 454.893 1718.23 448.72C1712.02 442.547 1708.91 435.03 1708.91 426.254C1708.91 420.417 1710.34 415 1713.15 410.003C1716 405.006 1719.87 401.101 1724.74 398.245C1729.61 395.432 1734.9 394.004 1740.61 394.004V394.004ZM1740.86 399.967C1736.37 399.967 1732.09 401.143 1728.06 403.452C1724.03 405.804 1720.88 408.953 1718.61 412.942C1716.34 416.932 1715.21 421.341 1715.21 426.254C1715.21 433.477 1717.68 439.607 1722.72 444.563C1727.72 449.56 1733.81 452.037 1740.86 452.037C1745.61 452.037 1749.98 450.903 1753.97 448.594C1758 446.326 1761.15 443.177 1763.41 439.188C1765.64 435.24 1766.77 430.831 1766.77 425.96C1766.77 421.131 1765.64 416.764 1763.41 412.858C1761.15 408.953 1757.96 405.804 1753.88 403.452C1749.81 401.143 1745.44 399.967 1740.86 399.967V399.967Z" fill="white"/>
<path d="M1816.63 395.556H1828.64C1833.47 395.556 1837.2 396.102 1839.76 397.236C1842.37 398.412 1844.43 400.175 1845.94 402.527C1847.45 404.878 1848.2 407.524 1848.2 410.421C1848.2 413.151 1847.53 415.586 1846.23 417.812C1844.89 420.038 1842.96 421.843 1840.44 423.229C1843.59 424.279 1846.02 425.539 1847.7 427.008C1849.42 428.436 1850.72 430.2 1851.69 432.257C1852.61 434.315 1853.12 436.54 1853.12 438.976C1853.12 443.847 1851.35 448.004 1847.74 451.364C1844.17 454.765 1839.39 456.445 1833.38 456.445H1816.63V395.556V395.556ZM1822.59 401.477V421.003H1826.07C1830.32 421.003 1833.42 420.583 1835.44 419.828C1837.41 419.03 1839.01 417.77 1840.14 416.09C1841.32 414.369 1841.91 412.479 1841.91 410.421C1841.91 407.65 1840.94 405.466 1839.01 403.871C1837.03 402.275 1833.93 401.477 1829.64 401.477H1822.59V401.477ZM1822.59 427.092V450.524H1830.15C1834.6 450.524 1837.87 450.062 1839.93 449.222C1842.03 448.34 1843.67 446.955 1844.93 445.107C1846.19 443.259 1846.82 441.244 1846.82 439.102C1846.82 436.373 1845.94 434.021 1844.17 432.005C1842.41 429.99 1839.97 428.604 1836.87 427.848C1834.81 427.344 1831.2 427.092 1826.03 427.092H1822.59V427.092Z" fill="white"/>
<path d="M1895.48 395.556H1901.61V456.445H1895.48V395.556Z" fill="white"/>
<path d="M1946.68 395.556H1952.81V450.524H1976.28V456.445H1946.68V395.556Z" fill="white"/>
<path d="M2016.17 395.556H2022.3V456.445H2016.17V395.556Z" fill="white"/>
<path d="M2092.3 395.556L2120.73 456.445H2114.18L2104.65 436.415H2078.28L2068.79 456.445H2062.03L2090.79 395.556H2092.3V395.556ZM2091.55 408.322L2081.05 430.494H2101.96L2091.55 408.322Z" fill="white"/>
<path d="M2161.63 395.556H2173.77C2180.57 395.556 2185.15 395.808 2187.54 396.354C2191.2 397.194 2194.14 398.957 2196.4 401.687C2198.67 404.416 2199.81 407.776 2199.81 411.723C2199.81 415.04 2199.01 417.938 2197.45 420.457C2195.9 422.977 2193.68 424.867 2190.74 426.168C2187.84 427.428 2183.85 428.1 2178.73 428.1L2200.65 456.445H2193.17L2171.25 428.1H2167.72V456.445H2161.63V395.556V395.556ZM2167.72 401.477V422.179L2178.26 422.263C2182.34 422.263 2185.36 421.885 2187.29 421.087C2189.27 420.331 2190.78 419.114 2191.87 417.392C2192.96 415.712 2193.51 413.823 2193.51 411.681C2193.51 409.665 2192.96 407.818 2191.87 406.138C2190.74 404.458 2189.31 403.283 2187.5 402.569C2185.7 401.813 2182.71 401.477 2178.52 401.477H2167.72V401.477Z" fill="white"/>
<path d="M2243.1 395.556H2249.23V456.445H2243.1V395.556Z" fill="white"/>
<path d="M2319.23 395.556L2347.66 456.445H2341.11L2331.58 436.415H2305.21L2295.72 456.445H2288.95L2317.72 395.556H2319.23V395.556ZM2318.48 408.322L2307.98 430.494H2328.89L2318.48 408.322Z" fill="white"/>
<path d="M816.586 103.584H943.739V125.21H838.842V194.833H942.815V216.501H838.842V304.055H942.815V325.723H816.586V103.584Z" fill="white"/>
<path d="M984.47 103.584H1006.77V304.055H1092.47V325.723H984.47V103.584Z" fill="white"/>
<path d="M1214.49 103.584H1258.79C1284.15 103.584 1301.33 104.634 1310.19 106.86C1322.87 110.009 1333.24 116.392 1341.31 126.134C1349.37 135.834 1353.4 148.054 1353.4 162.751C1353.4 177.574 1349.49 189.752 1341.6 199.368C1333.75 208.985 1322.91 215.409 1309.14 218.769C1299.06 221.204 1280.25 222.38 1252.62 222.38H1236.75V325.723H1214.49V103.584V103.584ZM1236.75 125.21V200.712L1274.41 201.174C1289.61 201.174 1300.74 199.788 1307.84 197.017C1314.89 194.245 1320.44 189.794 1324.47 183.621C1328.5 177.406 1330.51 170.436 1330.51 162.835C1330.51 155.403 1328.5 148.516 1324.47 142.343C1320.44 136.17 1315.1 131.761 1308.47 129.158C1301.88 126.512 1291.13 125.21 1276.05 125.21H1236.75V125.21Z" fill="white"/>
<path d="M1505.84 98C1539.48 98 1567.61 109.254 1590.29 131.678C1612.92 154.102 1624.26 181.732 1624.26 214.528C1624.26 247.072 1612.97 274.661 1590.37 297.337C1567.74 319.971 1540.19 331.309 1507.65 331.309C1474.77 331.309 1446.97 320.013 1424.3 297.463C1401.66 274.955 1390.32 247.66 1390.32 215.62C1390.32 194.288 1395.49 174.51 1405.82 156.285C1416.11 138.061 1430.17 123.783 1448.02 113.453C1465.83 103.165 1485.1 98 1505.84 98V98ZM1506.81 119.668C1490.43 119.668 1474.85 123.951 1460.12 132.518C1445.42 141.042 1433.91 152.548 1425.6 167.035C1417.37 181.606 1413.21 197.732 1413.21 215.578C1413.21 241.949 1422.36 264.205 1440.67 282.346C1458.98 300.57 1481.03 309.641 1506.81 309.641C1524.11 309.641 1540.03 305.484 1554.68 297.127C1569.38 288.771 1580.84 277.307 1589.03 262.819C1597.22 248.332 1601.38 232.249 1601.38 214.486C1601.38 196.85 1597.22 180.935 1589.03 166.699C1580.84 152.464 1569.21 141.042 1554.35 132.518C1539.44 123.951 1523.61 119.668 1506.81 119.668V119.668Z" fill="white"/>
<path d="M1672.41 103.584H1716.76C1741.45 103.584 1758.2 104.592 1766.98 106.608C1780.25 109.589 1790.96 116.056 1799.19 126.008C1807.5 135.918 1811.62 148.138 1811.62 162.625C1811.62 174.677 1808.8 185.301 1803.09 194.413C1797.38 203.61 1789.23 210.538 1778.61 215.199C1768.07 219.902 1753.42 222.296 1734.73 222.38L1814.72 325.723H1787.43L1707.48 222.38H1694.67V325.723H1672.41V103.584V103.584ZM1694.67 125.21V200.712L1733.05 201.048C1747.96 201.048 1758.92 199.662 1766.06 196.807C1773.15 193.951 1778.74 189.5 1782.77 183.285C1786.72 177.113 1788.73 170.184 1788.73 162.499C1788.73 155.067 1786.72 148.264 1782.64 142.175C1778.61 136.086 1773.32 131.761 1766.73 129.158C1760.18 126.512 1749.22 125.21 1733.97 125.21H1694.67Z" fill="white"/>
<path d="M1839.34 125.21V103.584H1960.9V125.21H1911.4V325.723H1888.85V125.21H1839.34Z" fill="white"/>
<path d="M2086.34 103.584L2189.98 325.723H2166.13L2131.4 252.698H2035.11L2000.64 325.723H1975.86L2080.76 103.584H2086.34V103.584ZM2083.53 150.196L2045.32 231.03H2121.62L2083.53 150.196V150.196Z" fill="white"/>
<path d="M2226.55 103.584H2248.81V304.055H2334.52V325.723H2226.55V103.584Z" fill="white"/>
<path d="M815.276 395.556L843.705 456.445H837.154L827.622 436.415H801.251L791.761 456.445H785L813.765 395.556H815.276ZM814.521 408.322L804.022 430.494H824.935L814.521 408.322Z" fill="white"/>
<path d="M943.149 405.762L938.404 410.213C935.003 406.896 931.266 404.334 927.234 402.612C923.161 400.891 919.214 400.051 915.351 400.051C910.563 400.051 905.986 401.227 901.661 403.536C897.294 405.888 893.935 409.079 891.583 413.11C889.189 417.142 887.972 421.383 887.972 425.876C887.972 430.453 889.231 434.778 891.667 438.936C894.145 443.051 897.546 446.284 901.871 448.678C906.238 451.029 910.983 452.205 916.19 452.205C922.447 452.205 927.78 450.441 932.105 446.914C936.431 443.387 939.034 438.81 939.832 433.225H920.39V427.262H946.719C946.635 436.668 943.863 444.143 938.32 449.686C932.735 455.229 925.345 458 916.022 458C904.727 458 895.824 454.137 889.231 446.452C884.15 440.573 881.631 433.729 881.631 425.96C881.631 420.207 883.101 414.832 885.998 409.877C888.896 404.88 892.885 401.017 897.966 398.203C903.005 395.432 908.758 394.004 915.141 394.004C920.306 394.004 925.177 394.928 929.754 396.817C934.331 398.665 938.782 401.647 943.149 405.762V405.762Z" fill="white"/>
<path d="M989.492 395.556H1024.35V401.477H995.581V420.583H1024.09V426.504H995.581V450.524H1024.09V456.445H989.492V395.556Z" fill="white"/>
<path d="M1066.13 456.445V395.556H1067.43L1107.95 442.125V395.556H1114.09V456.445H1112.7L1072.43 410.253V456.445H1066.13Z" fill="white"/>
<path d="M1216.72 406.77L1211.93 410.465C1209.28 407.022 1206.09 404.418 1202.35 402.612C1198.66 400.849 1194.59 399.967 1190.13 399.967C1185.31 399.967 1180.81 401.143 1176.66 403.452C1172.5 405.804 1169.31 408.911 1167.04 412.858C1164.77 416.806 1163.6 421.215 1163.6 426.128C1163.6 433.561 1166.16 439.775 1171.24 444.731C1176.36 449.728 1182.74 452.205 1190.51 452.205C1199.04 452.205 1206.18 448.888 1211.93 442.211L1216.72 445.864C1213.69 449.728 1209.91 452.709 1205.38 454.809C1200.8 456.908 1195.76 458 1190.13 458C1179.47 458 1171.07 454.431 1164.9 447.334C1159.77 441.371 1157.17 434.106 1157.17 425.624C1157.17 416.722 1160.28 409.247 1166.54 403.158C1172.79 397.069 1180.64 394.004 1190.05 394.004C1195.76 394.004 1200.88 395.138 1205.46 397.363C1210.04 399.631 1213.82 402.738 1216.72 406.77V406.77Z" fill="white"/>
<path d="M1259.26 395.556H1265.39V456.445H1259.26V395.556Z" fill="white"/>
<path d="M1335.39 395.556L1363.82 456.445H1357.27L1347.74 436.415H1321.37L1311.88 456.445H1305.12L1333.88 395.556H1335.39V395.556ZM1334.64 408.322L1324.14 430.494H1345.05L1334.64 408.322Z" fill="white"/>
<path d="M1457.3 395.556H1463.43V456.445H1457.3V395.556Z" fill="white"/>
<path d="M1508.56 456.445V395.556H1509.91L1550.39 442.125V395.556H1556.52V456.445H1555.13L1514.86 410.253V456.445H1508.56Z" fill="white"/>
<path d="M1599.77 456.445L1608.21 395.556H1609.47L1634.29 445.527L1658.9 395.556H1659.82L1668.6 456.445H1662.67L1656.59 412.857L1635 456.445H1633.41L1611.61 412.521L1605.78 456.445H1599.77Z" fill="white"/>
<path d="M1740.61 394.004C1749.81 394.004 1757.54 397.111 1763.75 403.242C1769.96 409.415 1773.07 416.974 1773.07 425.96C1773.07 434.904 1769.96 442.463 1763.75 448.678C1757.58 454.893 1750.02 458 1741.07 458C1732.05 458 1724.45 454.893 1718.23 448.72C1712.02 442.547 1708.91 435.03 1708.91 426.254C1708.91 420.417 1710.34 415 1713.15 410.003C1716 405.006 1719.87 401.101 1724.74 398.245C1729.61 395.432 1734.9 394.004 1740.61 394.004V394.004ZM1740.86 399.967C1736.37 399.967 1732.09 401.143 1728.06 403.452C1724.03 405.804 1720.88 408.953 1718.61 412.942C1716.34 416.932 1715.21 421.341 1715.21 426.254C1715.21 433.477 1717.68 439.607 1722.72 444.563C1727.72 449.56 1733.81 452.037 1740.86 452.037C1745.61 452.037 1749.98 450.903 1753.97 448.594C1758 446.326 1761.15 443.177 1763.41 439.188C1765.64 435.24 1766.77 430.831 1766.77 425.96C1766.77 421.131 1765.64 416.764 1763.41 412.858C1761.15 408.953 1757.96 405.804 1753.88 403.452C1749.81 401.143 1745.44 399.967 1740.86 399.967V399.967Z" fill="white"/>
<path d="M1816.63 395.556H1828.64C1833.47 395.556 1837.2 396.102 1839.76 397.236C1842.37 398.412 1844.43 400.175 1845.94 402.527C1847.45 404.878 1848.2 407.524 1848.2 410.421C1848.2 413.151 1847.53 415.586 1846.23 417.812C1844.89 420.038 1842.96 421.843 1840.44 423.229C1843.59 424.279 1846.02 425.539 1847.7 427.008C1849.42 428.436 1850.72 430.2 1851.69 432.257C1852.61 434.315 1853.12 436.54 1853.12 438.976C1853.12 443.847 1851.35 448.004 1847.74 451.364C1844.17 454.765 1839.39 456.445 1833.38 456.445H1816.63V395.556V395.556ZM1822.59 401.477V421.003H1826.07C1830.32 421.003 1833.42 420.583 1835.44 419.828C1837.41 419.03 1839.01 417.77 1840.14 416.09C1841.32 414.369 1841.91 412.479 1841.91 410.421C1841.91 407.65 1840.94 405.466 1839.01 403.871C1837.03 402.275 1833.93 401.477 1829.64 401.477H1822.59V401.477ZM1822.59 427.092V450.524H1830.15C1834.6 450.524 1837.87 450.062 1839.93 449.222C1842.03 448.34 1843.67 446.955 1844.93 445.107C1846.19 443.259 1846.82 441.244 1846.82 439.102C1846.82 436.373 1845.94 434.021 1844.17 432.005C1842.41 429.99 1839.97 428.604 1836.87 427.848C1834.81 427.344 1831.2 427.092 1826.03 427.092H1822.59V427.092Z" fill="white"/>
<path d="M1895.48 395.556H1901.61V456.445H1895.48V395.556Z" fill="white"/>
<path d="M1946.68 395.556H1952.81V450.524H1976.28V456.445H1946.68V395.556Z" fill="white"/>
<path d="M2016.17 395.556H2022.3V456.445H2016.17V395.556Z" fill="white"/>
<path d="M2092.3 395.556L2120.73 456.445H2114.18L2104.65 436.415H2078.28L2068.79 456.445H2062.03L2090.79 395.556H2092.3V395.556ZM2091.55 408.322L2081.05 430.494H2101.96L2091.55 408.322Z" fill="white"/>
<path d="M2161.63 395.556H2173.77C2180.57 395.556 2185.15 395.808 2187.54 396.354C2191.2 397.194 2194.14 398.957 2196.4 401.687C2198.67 404.416 2199.81 407.776 2199.81 411.723C2199.81 415.04 2199.01 417.938 2197.45 420.457C2195.9 422.977 2193.68 424.867 2190.74 426.168C2187.84 427.428 2183.85 428.1 2178.73 428.1L2200.65 456.445H2193.17L2171.25 428.1H2167.72V456.445H2161.63V395.556V395.556ZM2167.72 401.477V422.179L2178.26 422.263C2182.34 422.263 2185.36 421.885 2187.29 421.087C2189.27 420.331 2190.78 419.114 2191.87 417.392C2192.96 415.712 2193.51 413.823 2193.51 411.681C2193.51 409.665 2192.96 407.818 2191.87 406.138C2190.74 404.458 2189.31 403.283 2187.5 402.569C2185.7 401.813 2182.71 401.477 2178.52 401.477H2167.72V401.477Z" fill="white"/>
<path d="M2243.1 395.556H2249.23V456.445H2243.1V395.556Z" fill="white"/>
<path d="M2319.23 395.556L2347.66 456.445H2341.11L2331.58 436.415H2305.21L2295.72 456.445H2288.95L2317.72 395.556H2319.23V395.556ZM2318.48 408.322L2307.98 430.494H2328.89L2318.48 408.322Z" fill="white"/>
<path d="M816.586 103.584H943.739V125.21H838.842V194.833H942.815V216.501H838.842V304.055H942.815V325.723H816.586V103.584Z" fill="white"/>
<path d="M984.47 103.584H1006.77V304.055H1092.47V325.723H984.47V103.584Z" fill="white"/>
<path d="M1214.49 103.584H1258.79C1284.15 103.584 1301.33 104.634 1310.19 106.86C1322.87 110.009 1333.24 116.392 1341.31 126.134C1349.37 135.834 1353.4 148.054 1353.4 162.751C1353.4 177.574 1349.49 189.752 1341.6 199.368C1333.75 208.985 1322.91 215.409 1309.14 218.769C1299.06 221.204 1280.25 222.38 1252.62 222.38H1236.75V325.723H1214.49V103.584V103.584ZM1236.75 125.21V200.712L1274.41 201.174C1289.61 201.174 1300.74 199.788 1307.84 197.017C1314.89 194.245 1320.44 189.794 1324.47 183.621C1328.5 177.406 1330.51 170.436 1330.51 162.835C1330.51 155.403 1328.5 148.516 1324.47 142.343C1320.44 136.17 1315.1 131.761 1308.47 129.158C1301.88 126.512 1291.13 125.21 1276.05 125.21H1236.75V125.21Z" fill="white"/>
<path d="M1505.84 98C1539.48 98 1567.61 109.254 1590.29 131.678C1612.92 154.102 1624.26 181.732 1624.26 214.528C1624.26 247.072 1612.97 274.661 1590.37 297.337C1567.74 319.971 1540.19 331.309 1507.65 331.309C1474.77 331.309 1446.97 320.013 1424.3 297.463C1401.66 274.955 1390.32 247.66 1390.32 215.62C1390.32 194.288 1395.49 174.51 1405.82 156.285C1416.11 138.061 1430.17 123.783 1448.02 113.453C1465.83 103.165 1485.1 98 1505.84 98V98ZM1506.81 119.668C1490.43 119.668 1474.85 123.951 1460.12 132.518C1445.42 141.042 1433.91 152.548 1425.6 167.035C1417.37 181.606 1413.21 197.732 1413.21 215.578C1413.21 241.949 1422.36 264.205 1440.67 282.346C1458.98 300.57 1481.03 309.641 1506.81 309.641C1524.11 309.641 1540.03 305.484 1554.68 297.127C1569.38 288.771 1580.84 277.307 1589.03 262.819C1597.22 248.332 1601.38 232.249 1601.38 214.486C1601.38 196.85 1597.22 180.935 1589.03 166.699C1580.84 152.464 1569.21 141.042 1554.35 132.518C1539.44 123.951 1523.61 119.668 1506.81 119.668V119.668Z" fill="white"/>
<path d="M1672.41 103.584H1716.76C1741.45 103.584 1758.2 104.592 1766.98 106.608C1780.25 109.589 1790.96 116.056 1799.19 126.008C1807.5 135.918 1811.62 148.138 1811.62 162.625C1811.62 174.677 1808.8 185.301 1803.09 194.413C1797.38 203.61 1789.23 210.538 1778.61 215.199C1768.07 219.902 1753.42 222.296 1734.73 222.38L1814.72 325.723H1787.43L1707.48 222.38H1694.67V325.723H1672.41V103.584V103.584ZM1694.67 125.21V200.712L1733.05 201.048C1747.96 201.048 1758.92 199.662 1766.06 196.807C1773.15 193.951 1778.74 189.5 1782.77 183.285C1786.72 177.113 1788.73 170.184 1788.73 162.499C1788.73 155.067 1786.72 148.264 1782.64 142.175C1778.61 136.086 1773.32 131.761 1766.73 129.158C1760.18 126.512 1749.22 125.21 1733.97 125.21H1694.67Z" fill="white"/>
<path d="M1839.34 125.21V103.584H1960.9V125.21H1911.4V325.723H1888.85V125.21H1839.34Z" fill="white"/>
<path d="M2086.34 103.584L2189.98 325.723H2166.13L2131.4 252.698H2035.11L2000.64 325.723H1975.86L2080.76 103.584H2086.34V103.584ZM2083.53 150.196L2045.32 231.03H2121.62L2083.53 150.196V150.196Z" fill="white"/>
<path d="M2226.55 103.584H2248.81V304.055H2334.52V325.723H2226.55V103.584Z" fill="white"/>
</svg>
