<svg width="30" height="30" viewBox="0 0 30 30" fill="none" xmlns="http://www.w3.org/2000/svg">
<g clip-path="url(#clip0)">
<path d="M18.7498 16.2502C18.0586 16.2502 17.4999 16.8102 17.4999 17.5001V22.5002C17.4999 23.1889 16.9398 23.7501 16.2498 23.7501H12.4998V5.00027C12.4998 3.93277 11.8198 2.97903 10.7974 2.62404L10.4273 2.50022H16.2498C16.9398 2.50022 17.4999 3.06143 17.4999 3.75036V7.50032C17.4999 8.19016 18.0586 8.75023 18.7498 8.75023C19.441 8.75023 19.9997 8.19016 19.9997 7.50032V3.75036C19.9997 1.68289 18.3172 0.000396729 16.2498 0.000396729H2.81247C2.76486 0.000396729 2.72504 0.0216825 2.6788 0.0278622C2.61861 0.0228269 2.56116 0.000396729 2.50005 0.000396729C1.12128 0.000396729 0 1.12145 0 2.50022V25C0 26.0675 0.680001 27.0212 1.70241 27.3762L9.22499 29.8838C9.47996 29.9625 9.73356 30.0001 9.99997 30.0001C11.3787 30.0001 12.4998 28.8788 12.4998 27.5V26.2501H16.2498C18.3172 26.2501 19.9997 24.5676 19.9997 22.5002V17.5001C19.9997 16.8102 19.441 16.2502 18.7498 16.2502V16.2502Z" fill="#969696"/>
<path d="M29.6335 11.6165L24.6334 6.61659C24.2761 6.25908 23.7385 6.1515 23.2711 6.34513C22.8049 6.539 22.4998 6.99515 22.4998 7.50029V11.2503H17.4999C16.8098 11.2503 16.2498 11.8101 16.2498 12.5002C16.2498 13.1902 16.8098 13.7501 17.4999 13.7501H22.4998V17.5C22.4998 18.0052 22.8049 18.4613 23.2711 18.6552C23.7385 18.8488 24.2761 18.7412 24.6334 18.384L29.6335 13.3839C30.1221 12.8952 30.1221 12.1051 29.6335 11.6165V11.6165Z" fill="#969696"/>
</g>
<defs>
<clipPath id="clip0">
<rect width="30" height="30" fill="white"/>
</clipPath>
</defs>
</svg>
