<svg width="702" height="514" viewBox="0 0 702 514" fill="none" xmlns="http://www.w3.org/2000/svg">
<path fill-rule="evenodd" clip-rule="evenodd" d="M278.189 439.882C292.772 449.592 367.65 473.079 388.718 476.935L392.119 476.76C392.294 476.375 392.504 475.463 392.575 475.674C393.661 478.478 393.346 473.991 393.486 473.675C393.626 473.325 394.573 470.836 394.573 470.836C395.73 467.295 395.484 467.26 396.22 463.299L423.283 337.17C433.94 295.559 441.792 239.821 452.589 196.002L478.671 68.3654C480.388 57.2178 486.803 34.6772 487.364 25.7731C483.368 23.4244 347.774 -0.483324 344.829 0.00745136C337.573 1.3045 342.13 4.95026 339.816 16.7289C338.905 21.286 336.872 28.6126 336.241 33.3801C331.718 67.7694 327.372 113.412 321.307 146.118C319.099 157.967 318.292 171.603 316.399 183.031L278.189 439.882V439.882Z" fill="#FEC800"/>
<path fill-rule="evenodd" clip-rule="evenodd" d="M377.15 474.973C382.023 479.389 382.058 476.48 389.28 478.303C393.872 479.46 388.123 478.969 395.204 480.091C397.307 480.406 400.813 480.441 403.056 480.546C422.197 481.493 460.126 492.605 491.08 489.591L524.979 409.209C532.305 391.541 619.032 175.389 621.661 164.347L490.905 117.478C487.96 120.563 438.848 278.522 433.695 295.945L380.621 470.906C378.202 476.795 381.217 473.535 377.15 474.973V474.973Z" fill="#DC291A"/>
<path fill-rule="evenodd" clip-rule="evenodd" d="M187.396 429.611C192.619 430.732 190.796 430.838 195.038 429.576C198.648 428.489 192.934 428.068 202.189 427.753C206.325 427.577 215.335 427.332 219.156 427.858C222.381 428.243 228.41 430.732 231.951 431.924L249.128 439.496C249.408 439.636 249.724 439.847 250.039 439.952C257.261 442.897 251.687 437.463 263.431 444.965L280.432 452.817C289.617 456.814 287.969 457.83 295.892 457.97C297.469 424.563 305.392 124.419 301.921 115.725C293.859 112.009 187.676 116.216 169.202 116.286C168.781 131.745 176.178 249.742 177.79 273.439C179.543 299.52 180.98 325.672 182.207 351.402L187.396 429.611V429.611Z" fill="#00A859"/>
<path fill-rule="evenodd" clip-rule="evenodd" d="M128.187 269.793C37.4991 291.633 -37.9751 314.805 86.4013 380.428C214.003 447.805 315.663 460.495 454.973 482.439C488.451 485.594 724.759 501.79 683.219 411.452L672.772 392.382C689.494 406.334 707.617 420.777 700.326 446.508C674.174 538.423 417.008 511.465 344.829 501.65C258.102 489.871 39.988 424.843 4.37179 338.923C-24.3385 269.758 96.5674 269.443 128.187 269.793Z" fill="#00AFEF"/>
<path fill-rule="evenodd" clip-rule="evenodd" d="M148.694 380.954C262.414 429.751 540.718 529.343 661.344 459.057C708.879 431.399 670.669 397.115 643.746 369.982C684.34 396.484 721.849 435.115 668.32 470.38C544.61 551.919 256.945 457.69 136.004 409.209C128.187 405.703 124.717 396.519 128.222 388.736C131.728 380.919 140.877 377.448 148.694 380.954V380.954Z" fill="#3E4095"/>
</svg>
