<svg width="30" height="30" viewBox="0 0 30 30" fill="none" xmlns="http://www.w3.org/2000/svg">
<g clip-path="url(#clip0)">
<path d="M6.79342 0.0113831C3.28079 0.0113831 0.433105 2.85907 0.433105 6.37169C0.433105 9.8843 3.28079 12.732 6.79342 12.732C10.306 12.732 13.1537 9.8843 13.1537 6.37169C13.1498 2.86046 10.3044 0.01527 6.79342 0.0113831ZM6.79342 6.10099C7.94504 6.09905 8.9162 6.95833 9.05474 8.10162C9.19328 9.24464 8.45533 10.311 7.33674 10.5842V11.17C7.33674 11.4449 7.1138 11.6675 6.83923 11.6675C6.56437 11.6675 6.34171 11.4449 6.34171 11.17V10.6014C5.27892 10.3935 4.51543 9.45786 4.52459 8.37509C4.52237 8.19657 4.61649 8.03055 4.77085 7.94059C4.92494 7.85092 5.11568 7.85092 5.27004 7.94059C5.42413 8.03055 5.51824 8.19657 5.51602 8.37509C5.5163 9.08083 6.08878 9.65276 6.7948 9.65248C7.50055 9.6522 8.07247 9.07972 8.0722 8.37398C8.07192 7.66796 7.49944 7.09603 6.79342 7.09659C5.53934 7.09464 4.52376 6.07712 4.52459 4.82305C4.51515 3.74 5.27892 2.8041 6.34171 2.59615V2.00146C6.34171 1.7266 6.56437 1.50394 6.83923 1.50394C7.1138 1.50394 7.33674 1.7266 7.33674 2.00146V2.61309C8.35483 2.86185 9.0714 3.77443 9.07168 4.82277C9.06835 5.09596 8.84568 5.31612 8.57222 5.31612C8.29875 5.31612 8.07636 5.09596 8.07303 4.82277C8.07331 4.11647 7.50083 3.54344 6.79453 3.54316C6.08823 3.54288 5.51547 4.11536 5.51519 4.82166C5.51491 5.52796 6.08739 6.10072 6.79369 6.10099H6.79342Z" fill="#00AFEF"/>
<path d="M16.6475 29.8909L19.9879 29.9222V25.7813C19.9879 25.5065 20.2281 25.3058 20.503 25.3058H24.7147C24.9895 25.3058 25.2474 25.5065 25.2474 25.7813V29.9706L28.3747 30V21.681H16.6475V29.8909Z" fill="#00AFEF"/>
<path d="M15.5598 20.686H29.592L22.5851 14.6021L15.5598 20.686Z" fill="#00AFEF"/>
<path d="M20.9832 29.9317L24.2525 29.9614V26.3008H20.9832V29.9317Z" fill="#00AFEF"/>
<path d="M17.376 3.5179L20.9116 7.07161V5.39637C20.9116 5.15205 21.089 4.9441 21.3303 4.90551C21.5816 4.86692 21.8353 4.84804 22.0896 4.84915C22.7304 4.85026 23.3662 4.95909 23.9709 5.17148C25.2269 5.61153 26.318 6.46331 27.2245 7.70656C27.2003 6.60629 26.8691 4.67896 25.0681 3.18779C25.0575 3.17918 25.0475 3.16863 25.0378 3.15919C25.0026 3.12699 23.8929 2.13584 21.4813 2.13584H21.4103C21.1346 2.135 20.9116 1.91123 20.9116 1.63554V0L17.376 3.5179Z" fill="#00AFEF"/>
<path d="M8.5451 23.1979C8.54066 23.4439 8.35992 23.651 8.11699 23.6891C7.22634 23.8157 6.3182 23.7243 5.47059 23.4231C4.21457 22.9828 3.12181 22.1313 2.21533 20.8878C2.23949 21.9883 2.56987 23.9156 4.37088 25.4068C4.38143 25.4154 4.39115 25.4176 4.40086 25.4271C4.4364 25.4595 5.54499 26.4429 7.9568 26.4429H8.02787C8.30995 26.4499 8.53733 26.6767 8.5451 26.959V28.5946L12.0805 25.0767L8.5451 21.5233V23.1979Z" fill="#00AFEF"/>
</g>
<defs>
<clipPath id="clip0">
<rect width="30" height="30" fill="white"/>
</clipPath>
</defs>
</svg>
