<svg width="30" height="30" viewBox="0 0 30 30" fill="none" xmlns="http://www.w3.org/2000/svg">
<path d="M12.8774 0H17.1227V1.48585H12.8774V0Z" fill="#00A859"/>
<path d="M14.5049 1.98112H15.4955V3.39622H14.5049V1.98112Z" fill="#00A859"/>
<path d="M23.9858 0H28.2311V1.48585H23.9858V0Z" fill="#00A859"/>
<path d="M25.6133 1.98112H26.6038V3.39622H25.6133V1.98112Z" fill="#00A859"/>
<path d="M1.7688 0H6.01408V1.48585H1.7688V0Z" fill="#00A859"/>
<path d="M3.39624 1.98112H4.3868V3.39622H3.39624V1.98112Z" fill="#00A859"/>
<path d="M0.35376 21.2972H29.6462V3.89151H0.35376V21.2972ZM8.43721 11.0261L14.6838 5.61616C14.8701 5.45475 15.1467 5.45475 15.3328 5.61616L21.5633 11.0245C21.7195 11.1588 21.775 11.3763 21.7023 11.5692C21.6296 11.7619 21.4445 11.8887 21.2386 11.8868H20.2358V18.3484C20.2311 18.4789 20.1736 18.6016 20.0766 18.6889C19.978 18.7776 19.8486 18.8249 19.716 18.8208H19.7113L10.1768 18.7436C10.048 18.745 9.92444 18.6944 9.83351 18.6032C9.74258 18.5123 9.692 18.3888 9.69338 18.26V11.8868H8.76141C8.5555 11.8893 8.37032 11.7627 8.29763 11.5701C8.22522 11.3774 8.28105 11.1599 8.43721 11.0261Z" fill="#00A859"/>
<path d="M13.9387 17.7998L16.1321 17.8197V15.283H13.9387V17.7998Z" fill="#00A859"/>
<path d="M3.5376 22.2877H5.0942V30H3.5376V22.2877Z" fill="#00A859"/>
<path d="M15.0076 6.63768L10.0898 10.8962H19.9126L15.0076 6.63768Z" fill="#00A859"/>
<path d="M10.6838 17.7694L12.948 17.7904V14.8209C12.948 14.5476 13.1782 14.2925 13.4516 14.2925H16.599C16.8843 14.3057 17.112 14.5354 17.1225 14.8209V17.8288L19.2452 17.8487V11.8868H10.6838V17.7694Z" fill="#00A859"/>
<path d="M24.9058 22.2877H26.4624V30H24.9058V22.2877Z" fill="#00A859"/>
</svg>
